<svg id="svg" version="1.1" xmlns="http://www.w3.org/2000/svg" xmlns:xlink="http://www.w3.org/1999/xlink" width="400" height="400" viewBox="0, 0, 400,400"><g id="svgg"><path id="path0" d="M51.106 115.106 L 35.600 130.611 35.600 200.208 L 35.600 269.804 51.102 285.302 L 66.604 300.800 111.004 300.800 L 155.404 300.800 170.905 285.295 L 186.406 269.790 186.303 244.795 L 186.200 219.800 162.600 219.800 L 139.000 219.800 138.895 233.596 L 138.789 247.392 135.905 250.296 L 133.020 253.200 111.019 253.200 L 89.019 253.200 86.109 250.310 L 83.200 247.420 83.200 200.178 L 83.200 152.935 86.157 150.068 L 89.115 147.200 111.000 147.200 L 132.885 147.200 135.838 150.063 L 138.790 152.925 138.895 166.763 L 139.000 180.600 162.600 180.600 L 186.200 180.600 186.303 155.609 L 186.406 130.618 170.897 115.109 L 155.389 99.600 111.000 99.600 L 66.611 99.600 51.106 115.106 M210.100 99.862 C 209.702 100.025,209.600 120.516,209.600 200.433 L 209.600 300.800 233.200 300.800 L 256.800 300.800 256.800 266.033 C 256.800 246.911,256.909 230.981,257.043 230.633 C 257.261 230.065,259.812 230.000,281.761 230.000 L 306.236 230.000 311.918 235.731 L 317.600 241.462 317.600 271.131 L 317.600 300.800 341.200 300.800 L 364.800 300.800 364.790 262.300 L 364.780 223.800 361.290 219.969 C 359.370 217.862,356.180 214.384,354.200 212.240 C 352.220 210.096,350.547 208.111,350.482 207.828 C 350.417 207.546,353.604 204.364,357.564 200.757 L 364.765 194.200 364.782 162.198 L 364.800 130.196 349.598 114.998 L 334.396 99.800 272.498 99.729 C 238.454 99.690,210.375 99.750,210.100 99.862 M157.110 128.918 L 167.200 139.036 167.200 150.718 L 167.200 162.400 162.800 162.400 L 158.400 162.400 158.403 153.300 L 158.405 144.200 151.893 137.800 C 148.311 134.280,144.448 130.545,143.307 129.500 L 141.234 127.600 110.978 127.600 L 80.722 127.600 77.869 130.300 C 76.299 131.785,72.537 135.419,69.507 138.375 L 64.000 143.749 64.000 199.971 L 64.000 256.193 72.096 264.296 L 80.193 272.400 111.000 272.400 L 141.807 272.400 150.004 264.197 L 158.200 255.995 158.400 246.897 L 158.600 237.800 162.800 237.800 L 167.000 237.800 167.106 249.391 L 167.213 260.982 157.109 271.091 L 147.006 281.200 111.006 281.200 L 75.006 281.200 64.903 271.103 L 54.800 261.006 54.800 200.021 L 54.800 139.036 64.890 128.918 L 74.979 118.800 111.000 118.800 L 147.021 118.800 157.110 128.918 M335.300 129.075 L 345.600 139.341 345.600 162.426 C 345.600 183.837,345.549 185.570,344.900 186.322 C 344.515 186.768,342.400 188.703,340.200 190.622 C 338.000 192.541,335.568 194.672,334.797 195.356 C 334.025 196.040,332.046 197.770,330.400 199.200 C 328.754 200.630,326.775 202.368,326.003 203.063 C 325.232 203.757,324.154 204.683,323.609 205.120 L 322.619 205.914 324.384 207.857 C 325.355 208.926,327.891 211.690,330.019 214.000 C 332.148 216.310,336.613 221.170,339.942 224.800 L 345.996 231.400 345.998 256.513 L 346.000 281.626 341.500 281.513 L 337.000 281.400 336.800 257.558 L 336.600 233.717 334.849 231.758 C 333.886 230.681,329.999 226.560,326.211 222.600 C 322.423 218.640,318.283 214.275,317.011 212.900 L 314.698 210.400 276.149 210.400 L 237.600 210.400 237.600 246.014 L 237.600 281.627 233.300 281.514 L 229.000 281.400 228.899 200.100 L 228.798 118.800 276.899 118.804 L 325.000 118.808 335.300 129.075 M238.100 127.865 C 237.250 128.208,237.381 200.630,238.233 200.957 C 239.485 201.438,315.996 201.231,316.904 200.744 C 317.372 200.494,321.951 196.601,327.078 192.094 L 336.400 183.899 336.400 164.037 L 336.400 144.175 328.078 135.887 L 319.756 127.600 279.178 127.632 C 256.860 127.649,238.375 127.754,238.100 127.865 M314.463 150.033 L 317.400 152.867 317.517 164.622 L 317.634 176.378 314.700 179.389 L 311.766 182.400 284.526 182.400 C 260.055 182.400,257.261 182.336,257.043 181.767 C 256.726 180.941,256.726 148.659,257.043 147.833 C 257.261 147.264,260.045 147.200,284.406 147.200 L 311.526 147.200 314.463 150.033 " stroke="none" fill="#fafbfa" fill-rule="evenodd"></path><path id="path1" d="M30.400 0.291 C 29.630 0.382,28.829 0.624,28.620 0.829 C 28.411 1.033,27.837 1.200,27.344 1.200 C 26.851 1.200,26.336 1.380,26.200 1.600 C 26.064 1.820,25.513 2.000,24.976 2.000 C 24.439 2.000,24.000 2.180,24.000 2.400 C 24.000 2.620,23.640 2.800,23.200 2.800 C 22.760 2.800,22.400 2.980,22.400 3.200 C 22.400 3.420,22.040 3.600,21.600 3.600 C 21.160 3.600,20.800 3.780,20.800 4.000 C 20.800 4.220,20.440 4.400,20.000 4.400 C 19.560 4.400,19.200 4.580,19.200 4.800 C 19.200 5.020,18.912 5.200,18.560 5.200 C 18.209 5.200,17.417 5.740,16.800 6.400 C 16.183 7.060,15.476 7.600,15.229 7.600 C 14.244 7.600,7.600 14.244,7.600 15.229 C 7.600 15.476,7.060 16.183,6.400 16.800 C 5.740 17.417,5.200 18.209,5.200 18.560 C 5.200 18.912,5.020 19.200,4.800 19.200 C 4.580 19.200,4.400 19.560,4.400 20.000 C 4.400 20.440,4.220 20.800,4.000 20.800 C 3.780 20.800,3.600 21.160,3.600 21.600 C 3.600 22.040,3.420 22.400,3.200 22.400 C 2.980 22.400,2.800 22.760,2.800 23.200 C 2.800 23.640,2.620 24.000,2.400 24.000 C 2.180 24.000,2.000 24.439,2.000 24.976 C 2.000 25.513,1.820 26.064,1.600 26.200 C 1.380 26.336,1.200 26.851,1.200 27.344 C 1.200 27.837,0.975 28.465,0.700 28.740 C -0.036 29.476,-0.036 370.524,0.700 371.260 C 0.975 371.535,1.200 372.163,1.200 372.656 C 1.200 373.149,1.380 373.664,1.600 373.800 C 1.820 373.936,2.000 374.487,2.000 375.024 C 2.000 375.561,2.180 376.000,2.400 376.000 C 2.620 376.000,2.800 376.360,2.800 376.800 C 2.800 377.240,2.980 377.600,3.200 377.600 C 3.420 377.600,3.600 377.960,3.600 378.400 C 3.600 378.840,3.780 379.200,4.000 379.200 C 4.220 379.200,4.400 379.560,4.400 380.000 C 4.400 380.440,4.580 380.800,4.800 380.800 C 5.020 380.800,5.200 381.088,5.200 381.440 C 5.200 381.791,5.740 382.583,6.400 383.200 C 7.060 383.817,7.600 384.524,7.600 384.771 C 7.600 385.756,14.244 392.400,15.229 392.400 C 15.476 392.400,16.183 392.940,16.800 393.600 C 17.417 394.260,18.209 394.800,18.560 394.800 C 18.912 394.800,19.200 394.980,19.200 395.200 C 19.200 395.420,19.560 395.600,20.000 395.600 C 20.440 395.600,20.800 395.780,20.800 396.000 C 20.800 396.220,21.160 396.400,21.600 396.400 C 22.040 396.400,22.400 396.580,22.400 396.800 C 22.400 397.020,22.760 397.200,23.200 397.200 C 23.640 397.200,24.000 397.380,24.000 397.600 C 24.000 397.820,24.439 398.000,24.976 398.000 C 25.513 398.000,26.064 398.180,26.200 398.400 C 26.336 398.620,26.851 398.800,27.344 398.800 C 27.837 398.800,28.465 399.025,28.740 399.300 C 29.476 400.036,370.524 400.036,371.260 399.300 C 371.535 399.025,372.163 398.800,372.656 398.800 C 373.149 398.800,373.664 398.620,373.800 398.400 C 373.936 398.180,374.487 398.000,375.024 398.000 C 375.561 398.000,376.000 397.820,376.000 397.600 C 376.000 397.380,376.360 397.200,376.800 397.200 C 377.240 397.200,377.600 397.020,377.600 396.800 C 377.600 396.580,377.960 396.400,378.400 396.400 C 378.840 396.400,379.200 396.220,379.200 396.000 C 379.200 395.780,379.560 395.600,380.000 395.600 C 380.440 395.600,380.800 395.420,380.800 395.200 C 380.800 394.980,381.088 394.800,381.440 394.800 C 381.791 394.800,382.583 394.260,383.200 393.600 C 383.817 392.940,384.524 392.400,384.771 392.400 C 385.192 392.400,387.036 390.887,388.962 388.962 C 390.887 387.036,392.400 385.192,392.400 384.771 C 392.400 384.524,392.940 383.817,393.600 383.200 C 394.260 382.583,394.800 381.791,394.800 381.440 C 394.800 381.088,394.980 380.800,395.200 380.800 C 395.420 380.800,395.600 380.440,395.600 380.000 C 395.600 379.560,395.780 379.200,396.000 379.200 C 396.220 379.200,396.400 378.840,396.400 378.400 C 396.400 377.960,396.580 377.600,396.800 377.600 C 397.020 377.600,397.200 377.240,397.200 376.800 C 397.200 376.360,397.380 376.000,397.600 376.000 C 397.820 376.000,398.000 375.561,398.000 375.024 C 398.000 374.487,398.180 373.936,398.400 373.800 C 398.620 373.664,398.800 373.149,398.800 372.656 C 398.800 372.163,399.025 371.535,399.300 371.260 C 400.036 370.524,400.036 29.476,399.300 28.740 C 399.025 28.465,398.800 27.837,398.800 27.344 C 398.800 26.851,398.620 26.336,398.400 26.200 C 398.180 26.064,398.000 25.513,398.000 24.976 C 398.000 24.439,397.820 24.000,397.600 24.000 C 397.380 24.000,397.200 23.640,397.200 23.200 C 397.200 22.760,397.020 22.400,396.800 22.400 C 396.580 22.400,396.400 22.040,396.400 21.600 C 396.400 21.160,396.220 20.800,396.000 20.800 C 395.780 20.800,395.600 20.440,395.600 20.000 C 395.600 19.560,395.420 19.200,395.200 19.200 C 394.980 19.200,394.800 18.912,394.800 18.560 C 394.800 18.209,394.260 17.417,393.600 16.800 C 392.940 16.183,392.400 15.476,392.400 15.229 C 392.400 14.244,385.756 7.600,384.771 7.600 C 384.524 7.600,383.817 7.060,383.200 6.400 C 382.583 5.740,381.791 5.200,381.440 5.200 C 381.088 5.200,380.800 5.020,380.800 4.800 C 380.800 4.580,380.440 4.400,380.000 4.400 C 379.560 4.400,379.200 4.220,379.200 4.000 C 379.200 3.780,378.840 3.600,378.400 3.600 C 377.960 3.600,377.600 3.420,377.600 3.200 C 377.600 2.980,377.240 2.800,376.800 2.800 C 376.360 2.800,376.000 2.620,376.000 2.400 C 376.000 2.180,375.561 2.000,375.024 2.000 C 374.487 2.000,373.936 1.820,373.800 1.600 C 373.664 1.380,373.149 1.200,372.656 1.200 C 372.163 1.200,371.535 0.975,371.260 0.700 C 370.782 0.222,34.383 -0.182,30.400 0.291 M170.897 115.109 L 186.406 130.618 186.303 155.609 L 186.200 180.600 162.600 180.600 L 139.000 180.600 138.895 166.763 L 138.790 152.925 135.838 150.063 L 132.885 147.200 111.000 147.200 L 89.115 147.200 86.157 150.068 L 83.200 152.935 83.200 200.178 L 83.200 247.420 86.109 250.310 L 89.019 253.200 111.019 253.200 L 133.020 253.200 135.905 250.296 L 138.789 247.392 138.895 233.596 L 139.000 219.800 162.600 219.800 L 186.200 219.800 186.303 244.795 L 186.406 269.790 170.905 285.295 L 155.404 300.800 111.004 300.800 L 66.604 300.800 51.102 285.302 L 35.600 269.804 35.600 200.208 L 35.600 130.611 51.106 115.106 L 66.611 99.600 111.000 99.600 L 155.389 99.600 170.897 115.109 M349.598 114.998 L 364.800 130.196 364.782 162.198 L 364.765 194.200 357.564 200.757 C 353.604 204.364,350.417 207.546,350.482 207.828 C 350.547 208.111,352.220 210.096,354.200 212.240 C 356.180 214.384,359.370 217.862,361.290 219.969 L 364.780 223.800 364.790 262.300 L 364.800 300.800 341.200 300.800 L 317.600 300.800 317.600 271.131 L 317.600 241.462 311.918 235.731 L 306.236 230.000 281.761 230.000 C 259.812 230.000,257.261 230.065,257.043 230.633 C 256.909 230.981,256.800 246.911,256.800 266.033 L 256.800 300.800 233.200 300.800 L 209.600 300.800 209.600 200.433 C 209.600 120.516,209.702 100.025,210.100 99.862 C 210.375 99.750,238.454 99.690,272.498 99.729 L 334.396 99.800 349.598 114.998 M64.890 128.918 L 54.800 139.036 54.800 200.021 L 54.800 261.006 64.903 271.103 L 75.006 281.200 111.006 281.200 L 147.006 281.200 157.109 271.091 L 167.213 260.982 167.106 249.391 L 167.000 237.800 162.800 237.800 L 158.600 237.800 158.400 246.897 L 158.200 255.995 150.004 264.197 L 141.807 272.400 111.000 272.400 L 80.193 272.400 72.096 264.296 L 64.000 256.193 64.000 199.971 L 64.000 143.749 69.507 138.375 C 72.537 135.419,76.299 131.785,77.869 130.300 L 80.722 127.600 110.978 127.600 L 141.234 127.600 143.307 129.500 C 144.448 130.545,148.311 134.280,151.893 137.800 L 158.405 144.200 158.403 153.300 L 158.400 162.400 162.800 162.400 L 167.200 162.400 167.200 150.718 L 167.200 139.036 157.110 128.918 L 147.021 118.800 111.000 118.800 L 74.979 118.800 64.890 128.918 M228.899 200.100 L 229.000 281.400 233.300 281.514 L 237.600 281.627 237.600 246.014 L 237.600 210.400 276.149 210.400 L 314.698 210.400 317.011 212.900 C 318.283 214.275,322.423 218.640,326.211 222.600 C 329.999 226.560,333.886 230.681,334.849 231.758 L 336.600 233.717 336.800 257.558 L 337.000 281.400 341.500 281.513 L 346.000 281.626 345.998 256.513 L 345.996 231.400 339.942 224.800 C 336.613 221.170,332.148 216.310,330.019 214.000 C 327.891 211.690,325.355 208.926,324.384 207.857 L 322.619 205.914 323.609 205.120 C 324.154 204.683,325.232 203.757,326.003 203.063 C 326.775 202.368,328.754 200.630,330.400 199.200 C 332.046 197.770,334.025 196.040,334.797 195.356 C 335.568 194.672,338.000 192.541,340.200 190.622 C 342.400 188.703,344.515 186.768,344.900 186.322 C 345.549 185.570,345.600 183.837,345.600 162.426 L 345.600 139.341 335.300 129.075 L 325.000 118.808 276.899 118.804 L 228.798 118.800 228.899 200.100 M328.078 135.887 L 336.400 144.175 336.400 164.037 L 336.400 183.899 327.078 192.094 C 321.951 196.601,317.372 200.494,316.904 200.744 C 315.996 201.231,239.485 201.438,238.233 200.957 C 237.381 200.630,237.250 128.208,238.100 127.865 C 238.375 127.754,256.860 127.649,279.178 127.632 L 319.756 127.600 328.078 135.887 M257.043 147.833 C 256.726 148.659,256.726 180.941,257.043 181.767 C 257.261 182.336,260.055 182.400,284.526 182.400 L 311.766 182.400 314.700 179.389 L 317.634 176.378 317.517 164.622 L 317.400 152.867 314.463 150.033 L 311.526 147.200 284.406 147.200 C 260.045 147.200,257.261 147.264,257.043 147.833 " stroke="none" fill="#3cd484" fill-rule="evenodd"></path></g></svg>