<svg id="svg" version="1.1" xmlns="http://www.w3.org/2000/svg" xmlns:xlink="http://www.w3.org/1999/xlink" width="400" height="400" viewBox="0, 0, 400,400"><g id="svgg"><path id="path0" d="M99.400 93.039 C 92.627 93.961,85.661 95.868,80.589 98.188 C 79.372 98.745,78.288 99.200,78.181 99.200 C 78.073 99.200,76.800 99.920,75.352 100.800 C 73.903 101.680,72.636 102.400,72.536 102.400 C 72.365 102.400,69.239 104.751,68.800 105.209 C 68.690 105.324,67.556 106.299,66.279 107.375 C 59.405 113.173,52.747 124.551,50.466 134.400 C 50.237 135.390,49.935 136.650,49.795 137.200 C 48.799 141.119,48.679 146.890,48.516 198.400 C 48.332 257.020,48.318 256.524,50.465 265.600 C 54.302 281.818,64.202 294.228,79.000 301.371 C 82.488 303.055,88.549 305.265,91.000 305.748 C 91.660 305.878,93.370 306.238,94.800 306.548 C 112.284 310.339,134.201 306.702,147.854 297.745 C 152.888 294.442,161.313 285.979,162.309 283.225 C 162.433 282.881,163.012 281.880,163.596 281.000 C 164.830 279.138,166.867 274.901,167.634 272.600 C 167.927 271.720,168.281 270.820,168.421 270.600 C 168.561 270.380,168.895 269.300,169.163 268.200 C 169.431 267.100,169.815 265.570,170.015 264.800 C 171.015 260.958,172.140 252.090,171.943 249.600 L 171.800 247.800 159.000 247.800 L 146.200 247.800 146.110 250.000 C 145.212 272.051,132.368 284.436,110.400 284.436 C 90.975 284.436,78.779 275.179,75.227 257.737 C 74.114 252.268,73.915 149.046,75.007 143.289 C 78.790 123.348,95.124 112.861,117.200 116.200 C 120.686 116.727,122.100 117.033,124.755 117.834 C 137.083 121.552,145.455 134.320,146.110 150.400 L 146.200 152.600 159.000 152.600 L 171.800 152.600 171.922 150.460 C 172.184 145.881,170.477 135.967,168.297 129.400 C 159.584 103.160,131.997 88.600,99.400 93.039 M222.185 95.700 C 222.081 95.975,222.041 143.180,222.098 200.600 L 222.200 305.000 234.773 305.106 C 244.565 305.188,247.417 305.100,247.667 304.706 C 247.843 304.428,247.991 284.353,247.994 260.096 L 248.000 215.991 264.700 216.096 L 281.400 216.200 282.415 218.200 C 282.974 219.300,283.947 221.370,284.579 222.800 C 285.210 224.230,286.218 226.480,286.820 227.800 C 289.409 233.486,290.180 235.198,291.681 238.600 C 292.555 240.580,293.722 243.190,294.275 244.400 C 295.177 246.377,296.420 249.116,299.810 256.600 C 300.408 257.920,301.214 259.720,301.600 260.600 C 301.986 261.480,302.774 263.235,303.351 264.500 C 305.128 268.398,306.383 271.178,309.031 277.087 C 310.433 280.214,312.304 284.327,313.190 286.226 C 314.075 288.126,314.800 289.734,314.800 289.800 C 314.800 289.866,315.494 291.423,316.342 293.260 C 317.190 295.097,318.225 297.398,318.642 298.372 C 319.059 299.347,319.940 301.237,320.600 302.572 L 321.800 305.000 336.700 305.105 C 353.511 305.223,352.502 305.435,350.812 302.138 C 349.774 300.114,342.000 283.929,342.000 283.792 C 342.000 283.734,340.673 280.922,339.051 277.543 C 337.429 274.165,335.289 269.690,334.294 267.600 C 333.300 265.510,331.275 261.280,329.795 258.200 C 328.314 255.120,326.157 250.620,325.001 248.200 C 323.846 245.780,321.779 241.460,320.409 238.600 C 319.039 235.740,317.235 231.960,316.399 230.200 C 315.563 228.440,313.423 223.965,311.643 220.257 C 307.916 212.490,307.894 213.225,311.889 211.809 C 330.648 205.161,344.564 188.660,347.994 169.000 C 348.262 167.460,348.643 165.336,348.841 164.280 C 349.819 159.051,349.193 147.357,347.530 139.800 C 342.167 115.423,322.363 98.578,295.800 95.801 C 288.167 95.003,222.484 94.913,222.185 95.700 M295.400 119.335 C 311.590 123.367,320.359 133.526,322.187 150.365 C 324.279 169.636,315.756 184.981,299.800 190.673 C 294.977 192.393,293.032 192.526,270.100 192.698 L 248.000 192.865 248.000 155.866 C 248.000 126.652,248.105 118.820,248.500 118.643 C 249.731 118.094,292.978 118.732,295.400 119.335 " stroke="none" fill="#fafbfb" fill-rule="evenodd"></path><path id="path1" d="M30.400 0.291 C 29.630 0.382,28.829 0.624,28.620 0.829 C 28.411 1.033,27.837 1.200,27.344 1.200 C 26.851 1.200,26.336 1.380,26.200 1.600 C 26.064 1.820,25.513 2.000,24.976 2.000 C 24.439 2.000,24.000 2.180,24.000 2.400 C 24.000 2.620,23.640 2.800,23.200 2.800 C 22.760 2.800,22.400 2.980,22.400 3.200 C 22.400 3.420,22.040 3.600,21.600 3.600 C 21.160 3.600,20.800 3.780,20.800 4.000 C 20.800 4.220,20.440 4.400,20.000 4.400 C 19.560 4.400,19.200 4.580,19.200 4.800 C 19.200 5.020,18.912 5.200,18.560 5.200 C 18.209 5.200,17.417 5.740,16.800 6.400 C 16.183 7.060,15.476 7.600,15.229 7.600 C 14.244 7.600,7.600 14.244,7.600 15.229 C 7.600 15.476,7.060 16.183,6.400 16.800 C 5.740 17.417,5.200 18.209,5.200 18.560 C 5.200 18.912,5.020 19.200,4.800 19.200 C 4.580 19.200,4.400 19.560,4.400 20.000 C 4.400 20.440,4.220 20.800,4.000 20.800 C 3.780 20.800,3.600 21.160,3.600 21.600 C 3.600 22.040,3.420 22.400,3.200 22.400 C 2.980 22.400,2.800 22.760,2.800 23.200 C 2.800 23.640,2.620 24.000,2.400 24.000 C 2.180 24.000,2.000 24.439,2.000 24.976 C 2.000 25.513,1.820 26.064,1.600 26.200 C 1.380 26.336,1.200 26.851,1.200 27.344 C 1.200 27.837,0.975 28.465,0.700 28.740 C -0.036 29.476,-0.036 370.524,0.700 371.260 C 0.975 371.535,1.200 372.163,1.200 372.656 C 1.200 373.149,1.380 373.664,1.600 373.800 C 1.820 373.936,2.000 374.487,2.000 375.024 C 2.000 375.561,2.180 376.000,2.400 376.000 C 2.620 376.000,2.800 376.360,2.800 376.800 C 2.800 377.240,2.980 377.600,3.200 377.600 C 3.420 377.600,3.600 377.960,3.600 378.400 C 3.600 378.840,3.780 379.200,4.000 379.200 C 4.220 379.200,4.400 379.560,4.400 380.000 C 4.400 380.440,4.580 380.800,4.800 380.800 C 5.020 380.800,5.200 381.088,5.200 381.440 C 5.200 381.791,5.740 382.583,6.400 383.200 C 7.060 383.817,7.600 384.524,7.600 384.771 C 7.600 385.756,14.244 392.400,15.229 392.400 C 15.476 392.400,16.183 392.940,16.800 393.600 C 17.417 394.260,18.209 394.800,18.560 394.800 C 18.912 394.800,19.200 394.980,19.200 395.200 C 19.200 395.420,19.560 395.600,20.000 395.600 C 20.440 395.600,20.800 395.780,20.800 396.000 C 20.800 396.220,21.160 396.400,21.600 396.400 C 22.040 396.400,22.400 396.580,22.400 396.800 C 22.400 397.020,22.760 397.200,23.200 397.200 C 23.640 397.200,24.000 397.380,24.000 397.600 C 24.000 397.820,24.439 398.000,24.976 398.000 C 25.513 398.000,26.064 398.180,26.200 398.400 C 26.336 398.620,26.851 398.800,27.344 398.800 C 27.837 398.800,28.465 399.025,28.740 399.300 C 29.476 400.036,370.524 400.036,371.260 399.300 C 371.535 399.025,372.163 398.800,372.656 398.800 C 373.149 398.800,373.664 398.620,373.800 398.400 C 373.936 398.180,374.487 398.000,375.024 398.000 C 375.561 398.000,376.000 397.820,376.000 397.600 C 376.000 397.380,376.360 397.200,376.800 397.200 C 377.240 397.200,377.600 397.020,377.600 396.800 C 377.600 396.580,377.960 396.400,378.400 396.400 C 378.840 396.400,379.200 396.220,379.200 396.000 C 379.200 395.780,379.560 395.600,380.000 395.600 C 380.440 395.600,380.800 395.420,380.800 395.200 C 380.800 394.980,381.088 394.800,381.440 394.800 C 381.791 394.800,382.583 394.260,383.200 393.600 C 383.817 392.940,384.524 392.400,384.771 392.400 C 385.192 392.400,387.036 390.887,388.962 388.962 C 390.887 387.036,392.400 385.192,392.400 384.771 C 392.400 384.524,392.940 383.817,393.600 383.200 C 394.260 382.583,394.800 381.791,394.800 381.440 C 394.800 381.088,394.980 380.800,395.200 380.800 C 395.420 380.800,395.600 380.440,395.600 380.000 C 395.600 379.560,395.780 379.200,396.000 379.200 C 396.220 379.200,396.400 378.840,396.400 378.400 C 396.400 377.960,396.580 377.600,396.800 377.600 C 397.020 377.600,397.200 377.240,397.200 376.800 C 397.200 376.360,397.380 376.000,397.600 376.000 C 397.820 376.000,398.000 375.561,398.000 375.024 C 398.000 374.487,398.180 373.936,398.400 373.800 C 398.620 373.664,398.800 373.149,398.800 372.656 C 398.800 372.163,399.025 371.535,399.300 371.260 C 400.036 370.524,400.036 29.476,399.300 28.740 C 399.025 28.465,398.800 27.837,398.800 27.344 C 398.800 26.851,398.620 26.336,398.400 26.200 C 398.180 26.064,398.000 25.513,398.000 24.976 C 398.000 24.439,397.820 24.000,397.600 24.000 C 397.380 24.000,397.200 23.640,397.200 23.200 C 397.200 22.760,397.020 22.400,396.800 22.400 C 396.580 22.400,396.400 22.040,396.400 21.600 C 396.400 21.160,396.220 20.800,396.000 20.800 C 395.780 20.800,395.600 20.440,395.600 20.000 C 395.600 19.560,395.420 19.200,395.200 19.200 C 394.980 19.200,394.800 18.912,394.800 18.560 C 394.800 18.209,394.260 17.417,393.600 16.800 C 392.940 16.183,392.400 15.476,392.400 15.229 C 392.400 14.244,385.756 7.600,384.771 7.600 C 384.524 7.600,383.817 7.060,383.200 6.400 C 382.583 5.740,381.791 5.200,381.440 5.200 C 381.088 5.200,380.800 5.020,380.800 4.800 C 380.800 4.580,380.440 4.400,380.000 4.400 C 379.560 4.400,379.200 4.220,379.200 4.000 C 379.200 3.780,378.840 3.600,378.400 3.600 C 377.960 3.600,377.600 3.420,377.600 3.200 C 377.600 2.980,377.240 2.800,376.800 2.800 C 376.360 2.800,376.000 2.620,376.000 2.400 C 376.000 2.180,375.561 2.000,375.024 2.000 C 374.487 2.000,373.936 1.820,373.800 1.600 C 373.664 1.380,373.149 1.200,372.656 1.200 C 372.163 1.200,371.535 0.975,371.260 0.700 C 370.782 0.222,34.383 -0.182,30.400 0.291 M120.825 92.994 C 147.034 96.397,164.611 111.670,170.144 135.850 C 171.092 139.990,172.064 147.980,171.922 150.460 L 171.800 152.600 159.000 152.600 L 146.200 152.600 146.110 150.400 C 145.455 134.320,137.083 121.552,124.755 117.834 C 100.022 110.374,79.233 121.012,75.007 143.289 C 73.915 149.046,74.114 252.268,75.227 257.737 C 78.779 275.179,90.975 284.436,110.400 284.436 C 132.368 284.436,145.212 272.051,146.110 250.000 L 146.200 247.800 159.000 247.800 L 171.800 247.800 171.943 249.600 C 172.140 252.090,171.015 260.958,170.015 264.800 C 169.815 265.570,169.431 267.100,169.163 268.200 C 168.895 269.300,168.561 270.380,168.421 270.600 C 168.281 270.820,167.927 271.720,167.634 272.600 C 166.867 274.901,164.830 279.138,163.596 281.000 C 163.012 281.880,162.433 282.881,162.309 283.225 C 161.313 285.979,152.888 294.442,147.854 297.745 C 134.201 306.702,112.284 310.339,94.800 306.548 C 93.370 306.238,91.660 305.878,91.000 305.748 C 88.549 305.265,82.488 303.055,79.000 301.371 C 73.095 298.521,71.884 297.706,65.668 292.400 C 59.170 286.855,52.864 275.737,50.465 265.600 C 48.318 256.524,48.332 257.020,48.516 198.400 C 48.679 146.890,48.799 141.119,49.795 137.200 C 49.935 136.650,50.237 135.390,50.466 134.400 C 52.747 124.551,59.405 113.173,66.279 107.375 C 67.556 106.299,68.690 105.324,68.800 105.209 C 69.239 104.751,72.365 102.400,72.536 102.400 C 72.636 102.400,73.903 101.680,75.352 100.800 C 76.800 99.920,78.073 99.200,78.181 99.200 C 78.288 99.200,79.372 98.745,80.589 98.188 C 91.253 93.310,107.303 91.238,120.825 92.994 M295.800 95.801 C 322.363 98.578,342.167 115.423,347.530 139.800 C 349.193 147.357,349.819 159.051,348.841 164.280 C 348.643 165.336,348.262 167.460,347.994 169.000 C 344.564 188.660,330.648 205.161,311.889 211.809 C 307.894 213.225,307.916 212.490,311.643 220.257 C 313.423 223.965,315.563 228.440,316.399 230.200 C 317.235 231.960,319.039 235.740,320.409 238.600 C 321.779 241.460,323.846 245.780,325.001 248.200 C 326.157 250.620,328.314 255.120,329.795 258.200 C 331.275 261.280,333.300 265.510,334.294 267.600 C 335.289 269.690,337.429 274.165,339.051 277.543 C 340.673 280.922,342.000 283.734,342.000 283.792 C 342.000 283.929,349.774 300.114,350.812 302.138 C 352.502 305.435,353.511 305.223,336.700 305.105 L 321.800 305.000 320.600 302.572 C 319.940 301.237,319.059 299.347,318.642 298.372 C 318.225 297.398,317.190 295.097,316.342 293.260 C 315.494 291.423,314.800 289.866,314.800 289.800 C 314.800 289.734,314.075 288.126,313.190 286.226 C 312.304 284.327,310.433 280.214,309.031 277.087 C 306.383 271.178,305.128 268.398,303.351 264.500 C 302.774 263.235,301.986 261.480,301.600 260.600 C 301.214 259.720,300.408 257.920,299.810 256.600 C 296.420 249.116,295.177 246.377,294.275 244.400 C 293.722 243.190,292.555 240.580,291.681 238.600 C 290.180 235.198,289.409 233.486,286.820 227.800 C 286.218 226.480,285.210 224.230,284.579 222.800 C 283.947 221.370,282.974 219.300,282.415 218.200 L 281.400 216.200 264.700 216.096 L 248.000 215.991 247.994 260.096 C 247.991 284.353,247.843 304.428,247.667 304.706 C 247.417 305.100,244.565 305.188,234.773 305.106 L 222.200 305.000 222.098 200.600 C 222.041 143.180,222.081 95.975,222.185 95.700 C 222.484 94.913,288.167 95.003,295.800 95.801 M248.500 118.643 C 248.105 118.820,248.000 126.652,248.000 155.866 L 248.000 192.865 270.100 192.698 C 293.032 192.526,294.977 192.393,299.800 190.673 C 315.756 184.981,324.279 169.636,322.187 150.365 C 320.359 133.526,311.590 123.367,295.400 119.335 C 292.978 118.732,249.731 118.094,248.500 118.643 " stroke="none" fill="#3cd484" fill-rule="evenodd"></path></g></svg>